<svg version="1.0" xmlns="http://www.w3.org/2000/svg"
 width="512.000000pt" height="512.000000pt" viewBox="0 0 512.000000 512.000000"
 preserveAspectRatio="xMidYMid meet">

<g transform="translate(0.000000,512.000000) scale(0.100000,-0.100000)"
fill="#FFD700" stroke="none">
<path d="M1709 5105 c-14 -8 -31 -27 -37 -42 -6 -15 -13 -109 -16 -208 -9
-302 -74 -536 -213 -767 l-47 -77 -33 39 c-81 95 -238 125 -355 67 -102 -50
-160 -141 -164 -260 l-3 -68 -60 -30 c-109 -55 -178 -160 -190 -292 l-6 -72
-105 -26 c-115 -29 -253 -49 -342 -49 -138 0 -153 -43 -128 -345 23 -259 76
-514 158 -750 71 -206 84 -225 157 -225 47 0 95 45 95 87 0 16 -20 84 -45 150
-55 149 -108 349 -134 508 -21 125 -45 365 -37 373 3 2 42 8 88 13 100 11 256
43 329 68 l54 18 47 -38 c27 -21 58 -41 69 -44 18 -6 20 -11 12 -43 -4 -21 -8
-71 -8 -112 1 -125 63 -231 172 -292 40 -23 53 -35 48 -47 -54 -140 -10 -329
101 -430 93 -87 235 -128 353 -102 l54 11 66 -68 c129 -134 242 -193 452 -236
21 -5 29 -16 44 -67 50 -163 186 -289 360 -334 246 -63 516 89 590 334 15 51
23 62 44 67 195 39 334 113 454 244 l57 61 60 -12 c178 -35 355 53 435 215 50
100 57 220 20 317 -5 12 8 24 48 47 109 61 171 167 172 292 0 41 -4 91 -8 110
-8 34 -7 36 37 58 24 13 54 34 66 47 l22 23 54 -18 c68 -24 221 -57 299 -65
33 -3 75 -8 93 -11 l33 -5 -6 -77 c-42 -523 -199 -985 -480 -1407 -206 -309
-481 -586 -785 -790 -96 -64 -1073 -625 -1089 -625 -11 0 -893 501 -1024 582
-226 139 -479 356 -645 555 -24 28 -56 57 -72 63 -64 26 -132 -19 -134 -88 -1
-47 25 -82 179 -241 155 -160 341 -314 525 -434 156 -101 1143 -657 1167 -657
31 0 10 -11 588 318 536 305 662 383 823 512 658 526 1069 1298 1142 2145 25
302 10 345 -128 345 -89 0 -227 20 -342 49 l-105 26 -6 72 c-12 132 -80 237
-191 292 l-61 31 -1 67 c-3 118 -61 209 -164 260 -81 40 -183 40 -264 0 -32
-16 -73 -46 -91 -67 l-33 -39 -47 77 c-139 231 -204 465 -213 767 -3 99 -10
193 -16 208 -23 59 9 57 -890 57 -691 -1 -827 -3 -849 -15z m1551 -254 c0 -38
3 -83 6 -100 l7 -31 -141 0 c-154 0 -185 -8 -208 -51 -27 -52 -8 -115 41 -137
16 -8 82 -12 179 -12 l153 0 13 -57 c65 -292 273 -652 494 -856 46 -42 46 -42
35 -82 -11 -37 -8 -125 6 -185 5 -22 0 -28 -40 -49 -58 -31 -110 -89 -144
-160 -22 -48 -26 -70 -26 -147 l0 -92 -63 -27 c-90 -39 -154 -101 -199 -193
-36 -72 -38 -81 -38 -173 0 -94 1 -99 42 -180 l43 -83 -26 -33 c-56 -74 -213
-166 -304 -179 l-45 -6 -14 46 c-44 149 -205 291 -369 325 -241 50 -490 -90
-572 -320 -21 -62 -27 -63 -128 -28 -80 28 -139 64 -209 132 l-62 60 20 28
c11 15 32 54 47 86 23 50 27 71 27 154 0 90 -2 99 -38 171 -45 92 -109 154
-199 193 l-63 27 0 92 c0 77 -4 99 -26 147 -34 71 -86 129 -144 160 -40 21
-45 27 -40 49 14 60 17 148 6 185 -11 40 -11 40 33 80 123 111 272 315 363
496 51 102 123 301 138 382 l7 37 154 0 c167 0 197 7 220 51 27 52 8 115 -41
137 -16 8 -79 12 -167 12 l-140 0 6 31 c3 17 6 62 6 100 l0 69 700 0 700 0 0
-69z m-2071 -915 c59 -31 67 -102 17 -152 -50 -50 -121 -42 -152 17 -47 91 44
182 135 135z m2840 0 c91 -47 50 -186 -55 -186 -37 0 -94 60 -94 97 1 79 78
125 149 89z m-3019 -356 c45 -23 80 -80 80 -130 0 -50 -35 -107 -80 -130 -21
-11 -53 -20 -70 -20 -76 0 -150 74 -150 150 0 48 35 107 78 129 48 26 93 26
142 1z m3240 0 c45 -23 80 -80 80 -130 0 -50 -35 -107 -80 -130 -21 -11 -53
-20 -70 -20 -50 0 -107 35 -130 80 -25 50 -25 90 0 140 37 73 124 99 200 60z
m-3040 -460 c45 -23 80 -80 80 -130 0 -17 -9 -49 -20 -70 -23 -45 -80 -80
-130 -80 -50 0 -107 35 -130 80 -38 74 -16 153 56 196 48 29 92 30 144 4z
m2840 0 c45 -23 80 -80 80 -130 0 -50 -35 -107 -80 -130 -21 -11 -53 -20 -70
-20 -50 0 -107 35 -130 80 -38 74 -16 153 56 196 48 29 92 30 144 4z m-2550
-454 c59 -39 85 -89 85 -166 0 -78 -26 -127 -88 -168 -56 -37 -153 -39 -210
-3 -76 47 -111 140 -88 229 14 51 75 117 123 131 53 16 135 6 178 -23z m2340
0 c59 -39 85 -89 85 -166 0 -78 -26 -127 -88 -168 -56 -37 -153 -39 -210 -3
-76 47 -111 140 -88 229 14 51 75 117 123 131 53 16 135 6 178 -23z m-1146
-500 c105 -51 161 -144 161 -266 0 -85 -21 -142 -74 -203 -82 -92 -237 -121
-353 -64 -160 79 -215 278 -118 430 80 126 246 170 384 103z"/>
<path d="M2511 4706 c-87 -48 -50 -186 49 -186 51 0 100 49 100 99 0 75 -83
124 -149 87z"/>
<path d="M489 1786 c-48 -15 -75 -72 -59 -121 15 -45 44 -65 96 -65 82 0 123
94 69 158 -29 35 -60 43 -106 28z"/>
</g>
</svg>
